<?xml version="1.0" encoding="UTF-8"?>
<svg width="175.28mm" height="37.982mm" version="1.1" viewBox="0 0 175.28 37.982" xmlns="http://www.w3.org/2000/svg" xmlns:cc="http://creativecommons.org/ns#" xmlns:dc="http://purl.org/dc/elements/1.1/" xmlns:rdf="http://www.w3.org/1999/02/22-rdf-syntax-ns#"><metadata><rdf:RDF><cc:Work rdf:about=""><dc:format>image/svg+xml</dc:format><dc:type rdf:resource="http://purl.org/dc/dcmitype/StillImage"/><dc:title/></cc:Work></rdf:RDF></metadata><g transform="translate(-24.1 -103.12)"><path transform="scale(.26458)" d="m274.02 389.74-41.68 99.6h17.822l6.8984-16.385h33.773l6.7559 16.385h17.82zm206.46 0.43164v99.168h16.383v-59.932l61.801 60.361v-99.166h-16.385v60.074zm-290.43 0.39453c-12.486 0.25151-24.881 5.2105-34.295 14.84-18.971 19.259-18.829 50.159 0.14257 69.273 18.827 19.259 49.729 19.69 69.131 1.1504l-11.355-11.93c-12.935 12.36-33.485 12.072-46.133-0.71875-12.647-12.791-12.647-33.342 0-46.277 12.504-12.791 33.054-13.223 46.133-0.86328l11.211-12.072c-9.773-9.1981-22.348-13.654-34.834-13.402zm139.97 0.0371v98.592h42.828c13.079 0 24.434-8.6232 27.883-21.127 3.3056-12.504-2.0116-25.727-13.078-32.338 6.0363-8.767 6.7549-20.264 1.7246-29.75-4.8865-9.4856-14.804-15.377-25.439-15.377zm86.176 0v98.736h16.385v-98.736zm156.91 0v98.736h61.514v-16.385h-45.129v-24.721h38.23v-16.527h-38.23v-24.721h45.129v-16.383zm75.791 0v16.383h21.846v82.354h16.527v-82.354h21.99v-16.383zm-302.5 16.383h17.533c6.7549 0 12.359 5.6064 12.359 12.361 0 6.7549-5.6045 12.359-12.359 12.359h-17.533zm-72.391 25.582 9.916 24.002h-19.977zm-182.93 7.6777v8.7109c0 46.572 37.766 84.338 84.338 84.338h493.82c46.572 0 84.338-37.766 84.338-84.338v-8.7109h-17.494v8.7109c0 37.182-29.662 66.844-66.844 66.844h-493.82c-37.182 0-66.844-29.662-66.844-66.844v-8.7109zm255.32 7.9883h26.443c6.8986 0 12.361 5.4619 12.361 12.217 0 6.7549-5.4627 12.359-12.361 12.359h-26.443zm110.15 21.99c-5.3177 0-9.4844 4.3104-9.4844 9.4844 0 5.3177 4.1667 9.6309 9.4844 9.6309 5.1739 0 9.4863-4.3132 9.4863-9.6309 0-5.174-4.3124-9.4844-9.4863-9.4844z" color="#000000" color-rendering="auto" dominant-baseline="auto" image-rendering="auto" shape-rendering="auto" solid-color="#000000" stop-color="#000000" style="font-feature-settings:normal;font-variant-alternates:normal;font-variant-caps:normal;font-variant-east-asian:normal;font-variant-ligatures:normal;font-variant-numeric:normal;font-variant-position:normal;font-variation-settings:normal;inline-size:0;isolation:auto;mix-blend-mode:normal;shape-margin:0;shape-padding:0;text-decoration-color:#000000;text-decoration-line:none;text-decoration-style:solid;text-indent:0;text-orientation:mixed;text-transform:none;white-space:normal"/></g></svg>
